<svg width="32" height="32" viewBox="0 0 32 32" fill="none" xmlns="http://www.w3.org/2000/svg">
<circle cx="16" cy="16" r="16" fill="#EA4D45"/>
<g clip-path="url(#clip0_209_1420)">
<path d="M23.9162 17.2465L22.4912 12.1195C22.0736 10.6175 21.1658 9.29823 19.9122 8.37136C18.6587 7.4445 17.1313 6.96325 15.5728 7.00411C14.0144 7.04497 12.5143 7.6056 11.311 8.59687C10.1078 9.58815 9.27039 10.9532 8.93199 12.475L7.82874 17.4363C7.70687 17.9845 7.70969 18.553 7.83698 19.1C7.96427 19.647 8.21278 20.1584 8.56417 20.5964C8.91556 21.0345 9.36085 21.388 9.86717 21.631C10.3735 21.8739 10.9279 22 11.4895 22H12.325C12.4971 22.8477 12.957 23.6099 13.6268 24.1573C14.2966 24.7047 15.135 25.0038 16 25.0038C16.865 25.0038 17.7034 24.7047 18.3732 24.1573C19.0429 23.6099 19.5029 22.8477 19.675 22H20.3035C20.8816 22.0001 21.4519 21.8664 21.9698 21.6096C22.4877 21.3527 22.9392 20.9796 23.2891 20.5194C23.639 20.0592 23.8777 19.5243 23.9866 18.9565C24.0955 18.3888 24.0717 17.8035 23.917 17.2465H23.9162ZM16 23.5C15.5363 23.4981 15.0845 23.3529 14.7065 23.0844C14.3284 22.8159 14.0425 22.4372 13.888 22H18.112C17.9574 22.4372 17.6716 22.8159 17.2935 23.0844C16.9155 23.3529 16.4637 23.4981 16 23.5ZM22.0945 19.6113C21.8855 19.8885 21.6147 20.1132 21.3037 20.2675C20.9927 20.4218 20.6499 20.5014 20.3027 20.5H11.4895C11.1526 20.5 10.82 20.4242 10.5162 20.2784C10.2125 20.1327 9.94539 19.9205 9.73461 19.6577C9.52382 19.3949 9.37476 19.088 9.29841 18.7599C9.22206 18.4317 9.22038 18.0906 9.29349 17.7618L10.396 12.7998C10.6618 11.6044 11.3195 10.5322 12.2646 9.7536C13.2097 8.97498 14.388 8.53464 15.6121 8.50257C16.8362 8.4705 18.0359 8.84855 19.0205 9.57661C20.005 10.3047 20.718 11.341 21.046 12.5208L22.471 17.6478C22.5651 17.9818 22.5801 18.3332 22.5148 18.674C22.4494 19.0148 22.3055 19.3358 22.0945 19.6113Z" fill="white"/>
</g>
<defs>
<clipPath id="clip0_209_1420">
<rect x="7" y="7" width="18" height="18" fill="white"/>
</clipPath>
</defs>
</svg>
