<svg xmlns="http://www.w3.org/2000/svg" width="22" height="19" fill="none"><path fill="currentColor" d="M20.233 1.794a6.143 6.143 0 0 0-8.678 0L11 2.35l-.556-.556a6.142 6.142 0 0 0-8.676 0c-2.344 2.344-2.359 6.058-.036 8.641 2.12 2.355 8.37 7.442 8.634 7.658.18.146.397.217.612.217H11a.937.937 0 0 0 .633-.217c.266-.216 6.516-5.303 8.636-7.658 2.323-2.583 2.308-6.297-.035-8.64Zm-1.41 7.341C17.173 10.971 12.63 14.757 11 16.1c-1.63-1.343-6.17-5.128-7.823-6.964-1.62-1.802-1.636-4.367-.035-5.968a4.181 4.181 0 0 1 2.965-1.226 4.18 4.18 0 0 1 2.965 1.226l1.221 1.221a.94.94 0 0 0 .521.263c.312.067.65-.02.894-.262l1.221-1.222a4.198 4.198 0 0 1 5.93 0c1.601 1.6 1.586 4.166-.034 5.967Z"/></svg>