<svg width="32" height="32" fill="none" xmlns="http://www.w3.org/2000/svg"><circle cx="16" cy="16" r="16" fill="#EA4D45"/><g clip-path="url(#clip0_209_1420)"><path d="M23.916 17.247l-1.425-5.127a6.99 6.99 0 00-13.559.355l-1.103 4.961A3.75 3.75 0 0011.489 22h.836a3.75 3.75 0 007.35 0h.628a3.75 3.75 0 003.614-4.753zM16 23.5a2.25 2.25 0 01-2.112-1.5h4.224A2.25 2.25 0 0116 23.5zm6.095-3.889a2.234 2.234 0 01-1.792.889h-8.814a2.25 2.25 0 01-2.196-2.738l1.103-4.962a5.49 5.49 0 0110.65-.28l1.425 5.128a2.234 2.234 0 01-.377 1.963z" fill="#fff"/></g><defs><clipPath id="clip0_209_1420"><path fill="#fff" d="M7 7h18v18H7z"/></clipPath></defs></svg>