<?xml version="1.0" encoding="utf-8"?><svg xmlns="http://www.w3.org/2000/svg" xmlns:xlink="http://www.w3.org/1999/xlink"><symbol viewBox="0 0 11 12" id="arrow" xmlns="http://www.w3.org/2000/svg"><path d="M1.083 6H11m0 0l-4.958 4.958M11 6L6.042 1.042"/></symbol><symbol viewBox="0 0 16 16" id="email" xmlns="http://www.w3.org/2000/svg"><g clip-path="url(#ba)"><path d="M12.667.666H3.333A3.337 3.337 0 000 4v8a3.337 3.337 0 003.333 3.333h9.334A3.337 3.337 0 0016 12V4A3.337 3.337 0 0012.667.666zM3.333 2h9.334a2 2 0 011.853 1.258L9.415 8.364a2.005 2.005 0 01-2.83 0L1.48 3.258A2 2 0 013.333 2zm9.334 12H3.333a2 2 0 01-2-2V5l4.31 4.306a3.338 3.338 0 004.714 0L14.667 5v7a2 2 0 01-2 2z"/></g><defs><clipPath id="ba"><path d="M0 0h16v16H0z"/></clipPath></defs></symbol><symbol viewBox="0 0 16 16" id="phone" xmlns="http://www.w3.org/2000/svg"><g clip-path="url(#ca)"><path d="M8.666.667A.667.667 0 019.332 0 6.674 6.674 0 0116 6.667a.667.667 0 01-1.333 0 5.34 5.34 0 00-5.334-5.334.667.667 0 01-.666-.666zM9.332 4A2.667 2.667 0 0112 6.667a.667.667 0 101.333 0 4.004 4.004 0 00-4-4 .667.667 0 100 1.333zm6.062 7.16a2.067 2.067 0 010 2.918l-.606.7C9.328 20.004-3.96 6.72 1.188 1.243l.766-.667A2.054 2.054 0 014.84.604c.02.02 1.256 1.625 1.256 1.625a2.067 2.067 0 01-.005 2.855l-.772.97a8.52 8.52 0 004.621 4.63l.977-.776a2.067 2.067 0 012.854-.004s1.604 1.235 1.624 1.255zm-.917.969s-1.595-1.228-1.616-1.248a.734.734 0 00-1.033 0c-.018.018-1.362 1.09-1.362 1.09a.666.666 0 01-.653.101A10.006 10.006 0 013.933 6.2a.667.667 0 01.096-.667S5.1 4.188 5.119 4.171a.733.733 0 000-1.033c-.021-.02-1.249-1.617-1.249-1.617a.733.733 0 00-1.006.026l-.767.667C-1.664 6.737 9.85 17.612 13.813 13.867l.607-.7a.748.748 0 00.057-1.038z"/></g><defs><clipPath id="ca"><path d="M0 0h16v16H0z"/></clipPath></defs></symbol><symbol viewBox="0 0 16 16" id="pin" xmlns="http://www.w3.org/2000/svg"><g clip-path="url(#da)"><path d="M7.998 4a2.667 2.667 0 100 5.333 2.667 2.667 0 000-5.333zm0 4a1.333 1.333 0 110-2.667 1.333 1.333 0 010 2.667z"/><path d="M7.997 16a3.513 3.513 0 01-2.874-1.467c-2.54-3.505-3.83-6.14-3.83-7.832a6.703 6.703 0 0113.407 0c0 1.692-1.288 4.327-3.829 7.832a3.514 3.514 0 01-2.874 1.466zm0-14.547a5.255 5.255 0 00-5.25 5.25c0 1.34 1.263 3.818 3.553 6.977a2.096 2.096 0 003.394 0c2.29-3.16 3.552-5.637 3.552-6.977a5.255 5.255 0 00-5.249-5.25z"/></g><defs><clipPath id="da"><path d="M0 0h16v16H0z"/></clipPath></defs></symbol><symbol viewBox="0 0 24 24" id="up" xmlns="http://www.w3.org/2000/svg"><path d="M4 15l8-8 8 8-2 2-6-6-6 6z" fill-rule="evenodd"/></symbol></svg>