<svg width="41" height="40" fill="none" xmlns="http://www.w3.org/2000/svg"><g stroke-width="2" stroke-miterlimit="10" stroke-linecap="round" stroke-linejoin="round" clip-path="url(#clip0_209_1606)"><g stroke="#676767"><path d="M13.25 32.75c1.875.625 3.875 1.125 6.125 1.125s4.25-.375 6.125-1.125m8.625-10.625h3.125c1.125 0 2 .875 2 2s-.875 2-2 2h-.5"/><path d="M30.5 14.375c2.25 2 3.625 4.75 3.625 7.75 0 3.375-1.75 6.375-4.5 8.5L29.25 34.5c-.125 1.25-1.125 2.125-2.25 2.125h-1.875c-1.25 0-2.25-1-2.25-2.25v-.75c-1 .125-2.125.25-3.375.25-1.125 0-2.25-.125-3.375-.25v.75c0 1.25-1 2.25-2.25 2.25h-2c-1.125 0-2.125-.875-2.25-2.125l-.375-3.875c-1.625-1.25-2.875-2.75-3.625-4.5h-1.25c-1.125 0-2-.875-2.125-1.875l-.5-4c-.125-1.25.875-2.375 2.125-2.375h1.75c.75-1.625 1.875-3 3.375-4.125-.125-1.875-1.125-3.5-2.75-4.375.875-.5 1.75-.75 2.75-.75 2 0 3.75 1 4.625 2.625"/></g><path d="M11.5 17.5h1m10-3.75a5.125 5.125 0 100-10.25 5.125 5.125 0 000 10.25z" stroke="#EA4D45"/></g><defs><clipPath id="clip0_209_1606"><path fill="#fff" transform="translate(.5)" d="M0 0h40v40H0z"/></clipPath></defs></svg>