<svg width="41" height="40" fill="none" xmlns="http://www.w3.org/2000/svg"><g stroke-width="2" stroke-miterlimit="10" stroke-linecap="round" stroke-linejoin="round" clip-path="url(#clip0_209_1616)"><path d="M5.125 14.125c0-7 7-12.625 15.625-12.625s15.625 5.625 15.625 12.625" stroke="#676767"/><path d="M9.5 17.375V30.5M2 22.375v3.375c0 1.625 1.375 3 3 3h4.5V19.5H5c-1.625-.125-3 1.25-3 2.875zm34.5-3H32v9.25h4.5c1.625 0 3-1.375 3-3V22.25c0-1.5-1.375-2.875-3-2.875zm-4.5-2V30.5" stroke="#EA4D45"/><path d="M28.25 36.125h2.375c2.25 0 4.25-1.25 5.125-3.25" stroke="#676767"/><path d="M25.875 38.5a2.375 2.375 0 100-4.75 2.375 2.375 0 000 4.75z" stroke="#676767"/></g><defs><clipPath id="clip0_209_1616"><path fill="#fff" transform="translate(.75)" d="M0 0h40v40H0z"/></clipPath></defs></svg>