<svg width="40" height="40" fill="none" xmlns="http://www.w3.org/2000/svg"><g clip-path="url(#clip0_209_1585)" stroke-width="2" stroke-miterlimit="10" stroke-linecap="round" stroke-linejoin="round"><path d="M11.375 21.5c5.592 0 10.125-4.533 10.125-10.125S16.967 1.25 11.375 1.25 1.25 5.783 1.25 11.375 5.783 21.5 11.375 21.5z" stroke="#676767"/><g stroke="#EA4D45"><path d="M24 2h6.625a4.748 4.748 0 014.75 4.75v6.625"/><path d="M32 8.875l3.375 4.5 3.375-4.5"/></g><g stroke="#EA4D45"><path d="M16 38.75H9.375A4.748 4.748 0 014.625 34v-6.625"/><path d="M8 32l-3.375-4.625L1.25 32"/></g><path d="M28.625 38.75c5.592 0 10.125-4.533 10.125-10.125S34.217 18.5 28.625 18.5 18.5 23.033 18.5 28.625 23.033 38.75 28.625 38.75z" stroke="#676767"/></g><defs><clipPath id="clip0_209_1585"><path fill="#fff" d="M0 0h40v40H0z"/></clipPath></defs></svg>