<svg width="40" height="40" fill="none" xmlns="http://www.w3.org/2000/svg"><g stroke-width="2" stroke-miterlimit="10" stroke-linecap="round" stroke-linejoin="round"><path d="M13.125 11.375c1.5-4 6.5-7 12.25-7 7.125 0 12.75 4.375 12.75 9.625 0 2.5-1.25 4.875-3.375 6.5 1 1.25 2.375 2.125 4 2.625-1.125.625-2.375.875-3.75.875-1.625 0-3.125-.5-4.375-1.25" stroke="#EA4D45"/><path d="M27.375 25.5c0 5.375-5.75 9.625-12.75 9.625-1.875 0-3.625-.25-5.125-.75-1.25.75-2.75 1.25-4.375 1.25-1.375 0-2.625-.375-3.75-.875 1.625-.5 2.875-1.375 4-2.625-2.125-1.75-3.375-4-3.375-6.5C2 20.25 7.75 16 14.75 16s12.625 4.25 12.625 9.5zm-17.75-1.375H19m-9.375 4.25h4.75" stroke="#1C1C1C"/></g></svg>