<svg xmlns="http://www.w3.org/2000/svg" width="17" height="18" fill="none"><path fill="currentColor" d="M0 2.436c0-.587.544-1.063 1.214-1.063.67 0 1.215.476 1.215 1.063v13.812c0 .587-.544 1.063-1.215 1.063-.67 0-1.214-.476-1.214-1.063V2.436zm7.286 3.187c0-.587.543-1.062 1.214-1.062.67 0 1.214.475 1.214 1.062v10.625c0 .587-.543 1.063-1.214 1.063-.67 0-1.214-.476-1.214-1.063V5.623zm7.285-4.25c0-.587.544-1.062 1.215-1.062.67 0 1.214.475 1.214 1.062v14.875c0 .587-.544 1.063-1.214 1.063-.67 0-1.215-.476-1.215-1.063V1.373z"/></svg>