<svg width="60" height="36" fill="none" xmlns="http://www.w3.org/2000/svg"><path d="M52.973 35h-3.594v-9.58L43.793 35h-3.379V20.459h3.594v8.662l5.166-8.662h3.799V35zM30.96 35V23.232h-4.296V20.46H38.91v2.773h-4.297V35h-3.652zm-15.097 0V20.459h9.834v2.773h-6.2v2.55h5.712v2.773h-5.713v3.672h6.201V35h-9.834zm-7.09.283c-2.18 0-3.912-.657-5.195-1.973-1.282-1.321-1.924-3.177-1.924-5.566 0-2.305.642-4.14 1.924-5.508 1.29-1.373 3.024-2.06 5.205-2.06.58 0 1.1.032 1.563.097.462.066.905.157 1.328.274.332.098.693.231 1.084.4.39.17.706.316.947.44v3.466h-.371a18.238 18.238 0 00-.664-.556 7.936 7.936 0 00-.908-.645 5.755 5.755 0 00-1.123-.527 3.622 3.622 0 00-1.27-.225 4.05 4.05 0 00-1.455.254c-.436.163-.853.45-1.25.86-.365.37-.664.872-.898 1.504-.228.631-.342 1.377-.342 2.236 0 .905.12 1.667.361 2.285.241.612.557 1.107.947 1.484.378.365.798.629 1.26.792.469.162.934.244 1.397.244.481 0 .94-.078 1.377-.235a5.622 5.622 0 001.103-.537 7.41 7.41 0 00.86-.615c.247-.209.462-.394.644-.557h.332v3.418l-.928.43c-.351.156-.712.29-1.084.4a11.7 11.7 0 01-1.279.313c-.397.071-.944.107-1.64.107z" fill="#0081C2"/><path d="M45.648 15L50.56.459h3.985L59.457 15h-3.76l-.908-2.969h-4.57L49.31 15h-3.662zm8.34-5.605L52.504 4.6 51.02 9.395h2.968zM44.193 15H40.56V5.361l-2.646 6.221h-2.49l-2.647-6.22V15H29.34V.459h4.209l3.223 7.178L39.984.459h4.21V15zM27.387 5.049c0 .677-.108 1.321-.323 1.933a4.076 4.076 0 01-.927 1.534 6.203 6.203 0 01-.82.703 4.728 4.728 0 01-.977.547c-.358.15-.749.267-1.172.351a7.098 7.098 0 01-1.406.127h-1.914V15h-3.653V.459h5.645c.84 0 1.562.078 2.168.234.612.15 1.165.391 1.66.723.547.365.97.853 1.27 1.465.299.605.449 1.328.449 2.168zm-3.75.088c0-.41-.098-.762-.293-1.055-.196-.3-.43-.505-.703-.615a2.959 2.959 0 00-.996-.254c-.313-.026-.74-.04-1.28-.04h-.517V7.53h.254c.345 0 .67-.003.976-.01a5.49 5.49 0 00.8-.068c.196-.032.401-.094.616-.185.221-.098.39-.205.508-.323.247-.24.413-.491.498-.752.091-.26.137-.612.137-1.054zM.941 15L5.854.459h3.984L14.75 15h-3.76l-.908-2.969h-4.57L4.604 15H.94zm8.34-5.605L7.797 4.6 6.313 9.395H9.28z" fill="#EA4D45"/></svg>