<svg xmlns="http://www.w3.org/2000/svg" width="22" height="15" fill="none"><path fill="currentColor" d="M21.588 3.005h-3.72v-.391a.882.882 0 0 0-.877-.88h-.765V1.18A1.181 1.181 0 0 0 15.049 0h-2.17a1.175 1.175 0 0 0-1.176 1.18v1.825h-1.409V1.18A1.181 1.181 0 0 0 9.118 0H6.95a1.175 1.175 0 0 0-1.176 1.18v.553h-.765a.877.877 0 0 0-.877.88v.392H.412A.411.411 0 0 0 0 3.418v8.164a.414.414 0 0 0 .412.413h3.72v.391a.882.882 0 0 0 .877.88h.765v.554A1.181 1.181 0 0 0 6.951 15H9.12a1.175 1.175 0 0 0 1.177-1.18V11.97h1.409v1.851A1.181 1.181 0 0 0 12.882 15h2.17a1.175 1.175 0 0 0 1.176-1.18v-.553h.763a.877.877 0 0 0 .877-.88v-.392h3.72a.411.411 0 0 0 .412-.413V3.418a.414.414 0 0 0-.412-.413Zm-5.362-.446h.765a.055.055 0 0 1 .054.055v1.66a.053.053 0 0 1-.016.04.053.053 0 0 1-.038.015h-.765v-1.77Zm0 4.056h.765a.054.054 0 0 1 .054.055v1.66a.055.055 0 0 1-.034.05.054.054 0 0 1-.02.005h-.765v-1.77ZM5.774 8.385H5.01a.054.054 0 0 1-.054-.054V6.67a.054.054 0 0 1 .054-.055h.765v1.77Zm-.819-5.771a.055.055 0 0 1 .054-.055h.765v1.77H5.01a.053.053 0 0 1-.054-.054V2.614ZM.824 11.169V3.831h3.308v.444a.882.882 0 0 0 .877.88h.765v.635H5.01a.877.877 0 0 0-.877.88v1.66a.882.882 0 0 0 .877.88h.765v.635H5.01a.877.877 0 0 0-.877.88v.444H.824Zm4.95 1.272H5.01a.055.055 0 0 1-.054-.055v-1.66a.054.054 0 0 1 .054-.055h.765v1.77Zm3.697 1.38a.354.354 0 0 1-.353.353H6.95a.352.352 0 0 1-.353-.354V1.18A.354.354 0 0 1 6.95.826h2.17a.352.352 0 0 1 .352.354v12.64h-.001Zm.823-2.678V3.831h1.412v7.312h-1.412Zm5.108 2.677a.354.354 0 0 1-.353.354h-2.17a.352.352 0 0 1-.352-.354V1.18a.354.354 0 0 1 .353-.354h2.17a.352.352 0 0 1 .352.354v12.64Zm1.643-1.434a.056.056 0 0 1-.054.055h-.765v-1.77h.765a.053.053 0 0 1 .05.034.053.053 0 0 1 .004.02v1.661Zm4.131-1.217h-3.308v-.444a.882.882 0 0 0-.877-.88h-.765V9.21h.765a.877.877 0 0 0 .878-.88V6.67a.882.882 0 0 0-.878-.88h-.765v-.635h.765a.877.877 0 0 0 .877-.88V3.83h3.309v7.338Z"/></svg>