<svg xmlns="http://www.w3.org/2000/svg" width="28" height="12" fill="none"><g fill="currentColor"><path d="M13.943 12c-3.2 0-6.4-.125-9.6 0-2.4.125-3.657-1.75-4.114-3.75C0 6.875-.114 5.5.229 4.125.686 2.25 1.486.75 3.314.125 3.657 0 4 0 4.343 0H23.77c1.486 0 2.515.75 3.315 2C27.657 3 28 4 28 5.25c0 1.125.114 2.25-.343 3.375-.571 1.375-1.257 2.75-2.743 3.125-.457.125-.914.125-1.371.125-3.2.125-6.4.125-9.6.125zm-3.429-1.125c.229.125.343.25.457.25h8.915c1.485 0 2.285-1 2.857-2.375.343-1.25.343-2.5.228-3.75-.114-2.625-1.257-4-3.771-4.125h-7.771c-.229 0-.458.125-.8.125 1.714 3.375 1.942 6.625-.115 9.875zM4 1c-1.943.25-2.514 1.75-2.857 3.125-.229.875-.229 2-.114 3 .114.75.228 1.625.685 2.25 1.143 2.125 3.429 2.375 4.686 0 .229-.625.457-1.375.571-2.125.229-1.625 0-3.125-.685-4.625C5.829 1.5 4.8 1.125 4 1zm18.743.25c1.714 3.125 1.6 6.25-.114 9.5h.457c.457-.5 1.028-1 1.371-1.625 1.029-2.125.914-4.25-.114-6.25-.229-.875-.8-1.375-1.6-1.625zM6.629 1.125c1.828 3.25 1.828 6.375 0 9.625.914-.125 1.257-.625 1.6-1.25 1.257-2.375 1.257-4.75 0-7.25-.343-.5-.915-.875-1.6-1.125zm17.942 0c1.943 3.25 1.829 6.5.115 9.75 1.257-.625 1.371-.75 1.828-1.625.8-1.875.915-3.875.229-5.875-.457-1-.914-1.875-2.172-2.25zm-15.771 0c.343 1.25.8 2.25 1.029 3.25.114 1 0 2.125 0 3.25s-.686 2-1.143 3.25c1.028-.5 1.6-1.125 1.828-2 .572-1.75.572-3.5.115-5.25-.115-.875-.686-1.625-1.372-2.25-.114-.125-.228-.125-.457-.25z"/><path d="M2.057 6L2.4 3.75c0-.125 0-.25.114-.25.343-.625.8-1.25 1.372-1.25.685 0 1.257.5 1.485 1.25.686 1.625.686 3.25.115 4.875C5.257 9.125 4.8 9.75 4 9.75c-.8 0-1.257-.75-1.486-1.5-.228-.625-.343-1.5-.457-2.25zm1.6-2.625c-.914 1.5-1.028 3-.343 4.75.115.25.229.75.686.625.229-.125.571-.5.686-.75.685-1.375.571-2.75 0-4.125-.229-.375-.343-.625-1.029-.5z"/></g><defs><clipPath id="a"><path fill="#fff" d="M0 0h28v12H0z"/></clipPath></defs></svg>