<svg xmlns="http://www.w3.org/2000/svg" width="18" height="25" fill="none"><path fill="currentColor" d="M10.8 1.4c.1.4.2.5.2.7.1 1.7.1 1.7-1.6 2v5H14c.1-.5.2-1 .2-1.6h2.2c0 .9.5 1.5 1.2 2.2.2.2.4.7.4 1.1v4.1c0 .6-.2 1.1-.7 1.5-.6.5-1 1.1-.9 1.8-1.7.6-2.2.4-2.5-1.3-.9-.2-3.6-.2-4.7 0v4.8c1.7.4 1.7.4 1.6 2.2v.1c-.8.3-9.1.4-10.7.1-.4-1.7-.2-2.1 1.4-2.5.2-.9.3-16.4 0-17.5C-.2 3.7-.3 3.6 0 1.6c1 0 1.7-.5 2.3-1.2.4-.2.8-.4 1.2-.4h4c.6 0 1 .2 1.4.6.4.6 1 1.1 1.9.8zM2.6 4c0 .4-.1.8-.1 1.1 0 5.5 0 10.9.1 16.4 0 0 0 .1.1.1l.1.1c1.5.2 4.9.1 5.7-.1.2-1.9-.1-3.8.2-5.7 1.8-.1 3.6.1 5.3-.1.2-1.4.2-4.9-.1-6H8.6V4h-6zm12.2 8.8v3.6c0 .4-.2 1.1.5 1.1s.4-.6.4-1V8.7c0-.3-.1-.6-.5-.5-.2 0-.4.3-.4.4-.1.2 0 .5 0 .7v3.5zM5.5 23.5h3.6c.4 0 1.1.3 1.1-.5 0-.6-.7-.4-1.1-.4H1.3c-.3 0-.6.2-.5.5 0 .2.3.3.5.4.2.1.5 0 .7 0h3.5zm4.6-21.1c-.2 0-.4-.1-.6-.1H1.1c-.1.1-.2.3-.2.5 0 .1.1.3.3.3.2.1.5.1.8.1h7.8c.3-.1.5-.3.3-.8zm6.5 13.2c.7-.3.6-.9.6-1.4 0-3.6 0-3.6-.5-4.1-.3.8-.3 4-.1 5.5zM2.8 1.2c1.4.4 4.8.3 5.5 0-.4-.6-1-.5-1.5-.4-1.4.1-2.8-.4-4 .4z"/><defs><clipPath id="a"><path fill="#fff" d="M0 0h18v24.3H0z"/></clipPath></defs></svg>