<svg xmlns="http://www.w3.org/2000/svg" width="23" height="25" fill="none"><mask id="b" width="23" height="25" x=".022" y="0" fill="#000" maskUnits="userSpaceOnUse"><path fill="#fff" d="M.022 0h23v25h-23z"/><path d="M5.753 11.415v-2.69c.95-.348 8.21-.521 10.198-.174v2.777c-.605 0-1.124.087-1.729.087-.259.781-.086 1.215.519 1.736 1.037.955 2.074 1.562 3.543 1.389.086 0 .173-.087.346-.087.086-.52.086-1.042.172-1.65.605-.433 1.297-.086 1.902-.173.086.174.172.26.086.434-.086.868.173 1.562.95 2.083.346.26.346.52.346.955v3.732c0 .26-.086.694-.345.868-.778.607-1.124 1.389-.864 2.43h-1.988c-.087-.608-.087-1.128-.173-1.736-1.383-.26-2.42 0-3.457.955-2.16 1.996-4.926 2.343-7.345.955a6.53 6.53 0 0 1-1.21-.955c-1.037-.955-1.815-1.128-3.37-.868-.087.52-.174 1.128-.174 1.736H1.346c-.346-.955-.432-9.2-.173-10.589.346 0 .605-.087.95-.087.778 0 .951.174.951.955 0 .26 0 .608.086.955 1.297.26 2.334.087 3.284-.868.173-.087.346-.26.605-.434.692-.608.778-.694.432-1.823-.518.087-1.037.087-1.728.087Zm.691-.781c.692.087 1.21.087 1.729.087.086 1.302.346 2.517-1.037 3.211-.087 0-.087.087-.173.174-.778.694-1.642 1.128-2.765 1.128-.346 0-.692.087-1.038.087v5.034a.65.65 0 0 0 .346.087c1.556-.087 2.766.52 3.89 1.562 1.295 1.128 2.85 1.562 4.666 1.128a5.898 5.898 0 0 0 2.765-1.562c.778-.781 1.815-1.215 2.938-1.128.26 0 .519-.087.865-.087v-5.121c-.432 0-.778-.087-1.21-.087-.778 0-1.47-.173-2.16-.694-.52-.434-1.038-.781-1.47-1.302-.173-.087-.26-.347-.26-.52v-1.997c.692-.087 1.21-.087 1.816-.174V9.072c-1.556-.087-8.21 0-8.902.26v1.302Zm-4.666 2.777c0 .174-.087.26-.087.348v8.418c.087.087.173.26.26.26.172 0 .432-.086.432-.173.086-.26.086-.52.086-.781v-7.724c-.086-.521-.346-.521-.691-.348Zm18.32 0c-.431-.173-.69-.173-.777.348V22.177c.086.087.26.26.346.26.086 0 .345-.173.345-.26.087-.26.087-.52.087-.78V13.41Zm.692 6.857c.087 0 .173.087.173.087.086-.174.346-.347.346-.521v-3.819c0-.26-.173-.52-.605-.434.086 1.476.086 3.038.086 4.687ZM13.53 4.645c.865.781.606 1.736.52 2.69 0 .088-.26.174-.52.435V6.12c0-.694-.172-.78-.777-.867h-3.63c-.69.087-.777.173-.864.868v1.475c-.605-.173-.605-.173-.605-1.388 0-.608.087-1.129.605-1.476-.605-.955-1.21-1.562-2.333-1.475-.605.086-1.21 0-1.901 0-.865 0-1.297-.434-1.297-1.129C2.728 1.434 3.247 1 4.111 1h13.827c.864.087 1.383.781 1.124 1.475-.173.521-.605.782-1.124.782-.605 0-1.21.086-1.901 0-1.21-.087-1.901.434-2.506 1.388Zm-2.678-3.037H4.457c-.778 0-1.124.173-1.037.52.086.608.605.521 1.037.521h13.222c.346 0 .691-.087.691-.52 0-.435-.345-.521-.691-.521h-6.827ZM8.259 3.517c.432.868 1.124 1.215 2.074 1.128a3.26 3.26 0 0 1 1.297 0c.864.087 1.382-.434 1.814-1.128-.777-.26-4.234-.26-5.185 0Z"/><path d="M9.815 6.728c-.087.347-.173.608-.173.868-.086 0-.26.087-.26 0-.431-.26-.431-.26-.345-1.475 1.123-.087 2.247 0 3.543 0v1.475c-.691.087-.432-.52-.691-.78-.605-.088-1.296-.088-2.074-.088Z"/></mask><path fill="currentColor" d="M5.753 11.415v-2.69c.95-.348 8.21-.521 10.198-.174v2.777c-.605 0-1.124.087-1.729.087-.259.781-.086 1.215.519 1.736 1.037.955 2.074 1.562 3.543 1.389.086 0 .173-.087.346-.087.086-.52.086-1.042.172-1.65.605-.433 1.297-.086 1.902-.173.086.174.172.26.086.434-.086.868.173 1.562.95 2.083.346.26.346.52.346.955v3.732c0 .26-.086.694-.345.868-.778.607-1.124 1.389-.864 2.43h-1.988c-.087-.608-.087-1.128-.173-1.736-1.383-.26-2.42 0-3.457.955-2.16 1.996-4.926 2.343-7.345.955a6.53 6.53 0 0 1-1.21-.955c-1.037-.955-1.815-1.128-3.37-.868-.087.52-.174 1.128-.174 1.736H1.346c-.346-.955-.432-9.2-.173-10.589.346 0 .605-.087.95-.087.778 0 .951.174.951.955 0 .26 0 .608.086.955 1.297.26 2.334.087 3.284-.868.173-.087.346-.26.605-.434.692-.608.778-.694.432-1.823-.518.087-1.037.087-1.728.087Zm.691-.781c.692.087 1.21.087 1.729.087.086 1.302.346 2.517-1.037 3.211-.087 0-.087.087-.173.174-.778.694-1.642 1.128-2.765 1.128-.346 0-.692.087-1.038.087v5.034a.65.65 0 0 0 .346.087c1.556-.087 2.766.52 3.89 1.562 1.295 1.128 2.85 1.562 4.666 1.128a5.898 5.898 0 0 0 2.765-1.562c.778-.781 1.815-1.215 2.938-1.128.26 0 .519-.087.865-.087v-5.121c-.432 0-.778-.087-1.21-.087-.778 0-1.47-.173-2.16-.694-.52-.434-1.038-.781-1.47-1.302-.173-.087-.26-.347-.26-.52v-1.997c.692-.087 1.21-.087 1.816-.174V9.072c-1.556-.087-8.21 0-8.902.26v1.302Zm-4.666 2.777c0 .174-.087.26-.087.348v8.418c.087.087.173.26.26.26.172 0 .432-.086.432-.173.086-.26.086-.52.086-.781v-7.724c-.086-.521-.346-.521-.691-.348Zm18.32 0c-.431-.173-.69-.173-.777.348V22.177c.086.087.26.26.346.26.086 0 .345-.173.345-.26.087-.26.087-.52.087-.78V13.41Zm.692 6.857c.087 0 .173.087.173.087.086-.174.346-.347.346-.521v-3.819c0-.26-.173-.52-.605-.434.086 1.476.086 3.038.086 4.687ZM13.53 4.645c.865.781.606 1.736.52 2.69 0 .088-.26.174-.52.435V6.12c0-.694-.172-.78-.777-.867h-3.63c-.69.087-.777.173-.864.868v1.475c-.605-.173-.605-.173-.605-1.388 0-.608.087-1.129.605-1.476-.605-.955-1.21-1.562-2.333-1.475-.605.086-1.21 0-1.901 0-.865 0-1.297-.434-1.297-1.129C2.728 1.434 3.247 1 4.111 1h13.827c.864.087 1.383.781 1.124 1.475-.173.521-.605.782-1.124.782-.605 0-1.21.086-1.901 0-1.21-.087-1.901.434-2.506 1.388Zm-2.678-3.037H4.457c-.778 0-1.124.173-1.037.52.086.608.605.521 1.037.521h13.222c.346 0 .691-.087.691-.52 0-.435-.345-.521-.691-.521h-6.827ZM8.259 3.517c.432.868 1.124 1.215 2.074 1.128a3.26 3.26 0 0 1 1.297 0c.864.087 1.382-.434 1.814-1.128-.777-.26-4.234-.26-5.185 0Z"/><path fill="currentColor" d="M9.815 6.728c-.087.347-.173.608-.173.868-.086 0-.26.087-.26 0-.431-.26-.431-.26-.345-1.475 1.123-.087 2.247 0 3.543 0v1.475c-.691.087-.432-.52-.691-.78-.605-.088-1.296-.088-2.074-.088Z"/><path stroke="currentColor" stroke-width=".2" d="M5.753 11.415v-2.69c.95-.348 8.21-.521 10.198-.174v2.777c-.605 0-1.124.087-1.729.087-.259.781-.086 1.215.519 1.736 1.037.955 2.074 1.562 3.543 1.389.086 0 .173-.087.346-.087.086-.52.086-1.042.172-1.65.605-.433 1.297-.086 1.902-.173.086.174.172.26.086.434-.086.868.173 1.562.95 2.083.346.26.346.52.346.955v3.732c0 .26-.086.694-.345.868-.778.607-1.124 1.389-.864 2.43h-1.988c-.087-.608-.087-1.128-.173-1.736-1.383-.26-2.42 0-3.457.955-2.16 1.996-4.926 2.343-7.345.955a6.53 6.53 0 0 1-1.21-.955c-1.037-.955-1.815-1.128-3.37-.868-.087.52-.174 1.128-.174 1.736H1.346c-.346-.955-.432-9.2-.173-10.589.346 0 .605-.087.95-.087.778 0 .951.174.951.955 0 .26 0 .608.086.955 1.297.26 2.334.087 3.284-.868.173-.087.346-.26.605-.434.692-.608.778-.694.432-1.823-.518.087-1.037.087-1.728.087Zm.691-.781c.692.087 1.21.087 1.729.087.086 1.302.346 2.517-1.037 3.211-.087 0-.087.087-.173.174-.778.694-1.642 1.128-2.765 1.128-.346 0-.692.087-1.038.087v5.034a.65.65 0 0 0 .346.087c1.556-.087 2.766.52 3.89 1.562 1.295 1.128 2.85 1.562 4.666 1.128a5.898 5.898 0 0 0 2.765-1.562c.778-.781 1.815-1.215 2.938-1.128.26 0 .519-.087.865-.087v-5.121c-.432 0-.778-.087-1.21-.087-.778 0-1.47-.173-2.16-.694-.52-.434-1.038-.781-1.47-1.302-.173-.087-.26-.347-.26-.52v-1.997c.692-.087 1.21-.087 1.816-.174V9.072c-1.556-.087-8.21 0-8.902.26v1.302Zm-4.666 2.777c0 .174-.087.26-.087.348v8.418c.087.087.173.26.26.26.172 0 .432-.086.432-.173.086-.26.086-.52.086-.781v-7.724c-.086-.521-.346-.521-.691-.348Zm18.32 0c-.431-.173-.69-.173-.777.348V22.177c.086.087.26.26.346.26.086 0 .345-.173.345-.26.087-.26.087-.52.087-.78V13.41Zm.692 6.857c.087 0 .173.087.173.087.086-.174.346-.347.346-.521v-3.819c0-.26-.173-.52-.605-.434.086 1.476.086 3.038.086 4.687ZM13.53 4.645c.865.781.606 1.736.52 2.69 0 .088-.26.174-.52.435V6.12c0-.694-.172-.78-.777-.867h-3.63c-.69.087-.777.173-.864.868v1.475c-.605-.173-.605-.173-.605-1.388 0-.608.087-1.129.605-1.476-.605-.955-1.21-1.562-2.333-1.475-.605.086-1.21 0-1.901 0-.865 0-1.297-.434-1.297-1.129C2.728 1.434 3.247 1 4.111 1h13.827c.864.087 1.383.781 1.124 1.475-.173.521-.605.782-1.124.782-.605 0-1.21.086-1.901 0-1.21-.087-1.901.434-2.506 1.388Zm-2.678-3.037H4.457c-.778 0-1.124.173-1.037.52.086.608.605.521 1.037.521h13.222c.346 0 .691-.087.691-.52 0-.435-.345-.521-.691-.521h-6.827ZM8.259 3.517c.432.868 1.124 1.215 2.074 1.128a3.26 3.26 0 0 1 1.297 0c.864.087 1.382-.434 1.814-1.128-.777-.26-4.234-.26-5.185 0Z" mask="url(#b)"/><path stroke="currentColor" stroke-width=".2" d="M9.815 6.728c-.087.347-.173.608-.173.868-.086 0-.26.087-.26 0-.431-.26-.431-.26-.345-1.475 1.123-.087 2.247 0 3.543 0v1.475c-.691.087-.432-.52-.691-.78-.605-.088-1.296-.088-2.074-.088Z" mask="url(#b)"/></svg>