<svg xmlns="http://www.w3.org/2000/svg" width="23" height="23" fill="none"><path fill="currentColor" d="M19.76 7.474a9.338 9.338 0 00-2.009-2.98 9.346 9.346 0 00-6.628-2.746 9.308 9.308 0 00-3.648.737 9.325 9.325 0 00-2.98 2.01 9.346 9.346 0 00-2.746 6.628c0 1.265.248 2.492.737 3.648a9.324 9.324 0 002.01 2.98 9.346 9.346 0 006.627 2.746 9.336 9.336 0 006.628-2.746 9.346 9.346 0 002.746-6.629 9.336 9.336 0 00-.737-3.648zm-8.637 12.268c-4.752 0-8.618-3.867-8.618-8.619s3.866-8.618 8.618-8.618c4.753 0 8.619 3.866 8.619 8.618 0 4.753-3.867 8.619-8.619 8.619zm10.136-12.9A10.966 10.966 0 0018.9 3.344 10.966 10.966 0 0011.123.123a10.956 10.956 0 00-7.778 3.222 10.973 10.973 0 00-3.222 7.778 10.956 10.956 0 003.222 7.778 10.966 10.966 0 007.778 3.222 10.966 10.966 0 007.778-3.222 10.966 10.966 0 003.222-7.778c0-1.485-.29-2.925-.864-4.282zM11.123 21.367C5.474 21.368.878 16.772.878 11.123S5.474.878 11.123.878c5.649 0 10.245 4.596 10.245 10.245 0 5.649-4.596 10.245-10.245 10.245zm4.398-8.387a4.743 4.743 0 00.375-1.858A4.743 4.743 0 0014.5 7.75c-.438-.439 0 0 0 0a4.758 4.758 0 00-3.375-1.398A4.762 4.762 0 007.75 7.748h-.002l-.001.002a4.762 4.762 0 00-1.397 3.373v.001a4.755 4.755 0 001.4 3.376 4.755 4.755 0 003.375 1.398 4.743 4.743 0 003.376-1.398c.437-.439.78-.95 1.021-1.518zm-2.542-.537a2.27 2.27 0 00.392-.943h1.752a4.004 4.004 0 01-.905 2.182l-1.24-1.239zm-1.856.203a1.524 1.524 0 11.001-3.047 1.524 1.524 0 01-.001 3.048zM8.03 13.683a3.995 3.995 0 01-.906-2.182h1.753c.058.347.195.668.392.943l-1.24 1.24zm0-5.12l1.239 1.239a2.268 2.268 0 00-.392.944H7.123a3.993 3.993 0 01.906-2.183zm6.188 0a4 4 0 01.907 2.183H13.37a2.267 2.267 0 00-.392-.944l1.239-1.239zm-.534-.534l-1.239 1.239a2.267 2.267 0 00-.943-.392V7.123a3.995 3.995 0 012.182.906zm-2.937-.906v1.753a2.268 2.268 0 00-.944.392l-1.239-1.24a3.993 3.993 0 012.183-.905zm-2.183 7.094l1.239-1.238c.275.196.597.334.944.392v1.752a3.993 3.993 0 01-2.183-.905zm2.938.906v-1.752a2.27 2.27 0 00.943-.392l1.24 1.239a3.995 3.995 0 01-2.183.905zm-.275-9.285a1.412 1.412 0 10-1.411-1.411c0 .778.633 1.411 1.411 1.411zm0-2.066a.657.657 0 11-.001 1.313.657.657 0 01.001-1.313zm3.707 1.692a1.412 1.412 0 00.998 2.408 1.413 1.413 0 00.998-2.408 1.413 1.413 0 00-1.996 0zm1.461 1.46a.656.656 0 11-.927-.928.656.656 0 01.927.929zm.014 4.302a1.412 1.412 0 101.412-1.411c-.779 0-1.412.633-1.412 1.411zm1.411-.655a.657.657 0 11-.001 1.313.657.657 0 01.001-1.313zm-3.032 4.362a1.412 1.412 0 00.998 2.408 1.412 1.412 0 10-.998-2.408zm1.461 1.461a.656.656 0 11-.927-.928.656.656 0 01.927.928zm-5.228.014a1.412 1.412 0 000 2.822 1.411 1.411 0 00.001-2.822zm0 2.067a.657.657 0 11.002-1.314.657.657 0 01-.002 1.314zm-5.702-3.688a1.412 1.412 0 101.998 1.996 1.412 1.412 0 00-1.998-1.996zm1.461 1.461a.656.656 0 11-.927-.928.656.656 0 01.927.928zm-.94-5.228a1.412 1.412 0 00-2.822 0 1.412 1.412 0 002.821 0zm-1.412.655a.657.657 0 11.001-1.313.657.657 0 010 1.313zm2.034-3.949c.361 0 .723-.137.998-.412.55-.55.55-1.446 0-1.996a1.412 1.412 0 00-1.995 0 1.409 1.409 0 00.997 2.408zm-.463-1.874a.653.653 0 01.927 0 .656.656 0 11-.927 0z"/></svg>