<svg xmlns="http://www.w3.org/2000/svg" width="23" height="23" fill="none"><path fill="currentColor" d="M19.76 7.474a9.338 9.338 0 0 0-2.009-2.98 9.346 9.346 0 0 0-6.628-2.746 9.308 9.308 0 0 0-3.648.737 9.325 9.325 0 0 0-2.98 2.01 9.346 9.346 0 0 0-2.746 6.628c0 1.265.248 2.492.737 3.648a9.324 9.324 0 0 0 2.01 2.98 9.346 9.346 0 0 0 6.627 2.746 9.336 9.336 0 0 0 6.628-2.746 9.346 9.346 0 0 0 2.746-6.629 9.336 9.336 0 0 0-.737-3.648Zm-8.637 12.268c-4.752 0-8.618-3.867-8.618-8.619s3.866-8.618 8.618-8.618c4.753 0 8.619 3.866 8.619 8.618 0 4.753-3.867 8.619-8.619 8.619Zm10.136-12.9A10.966 10.966 0 0 0 18.9 3.344 10.966 10.966 0 0 0 11.123.123a10.956 10.956 0 0 0-7.778 3.222 10.973 10.973 0 0 0-3.222 7.778 10.956 10.956 0 0 0 3.222 7.778 10.966 10.966 0 0 0 7.778 3.222 10.966 10.966 0 0 0 7.778-3.222 10.966 10.966 0 0 0 3.222-7.778c0-1.485-.29-2.925-.864-4.282ZM11.123 21.367C5.474 21.368.878 16.772.878 11.123.878 5.474 5.474.878 11.123.878c5.649 0 10.245 4.596 10.245 10.245 0 5.649-4.596 10.245-10.245 10.245Zm4.398-8.387a4.743 4.743 0 0 0 .375-1.858A4.743 4.743 0 0 0 14.5 7.75c-.438-.439 0 0 0 0a4.758 4.758 0 0 0-3.375-1.398A4.762 4.762 0 0 0 7.75 7.748h-.002l-.001.002a4.762 4.762 0 0 0-1.397 3.373v.001A4.755 4.755 0 0 0 7.75 14.5a4.755 4.755 0 0 0 3.375 1.398 4.743 4.743 0 0 0 3.376-1.398c.437-.439.78-.95 1.021-1.518Zm-2.542-.537c.196-.275.334-.596.392-.943h1.752a4.004 4.004 0 0 1-.905 2.182l-1.24-1.239Zm-1.856.203c-.84 0-1.523-.684-1.523-1.524S10.283 9.6 11.123 9.6c.84 0 1.524.683 1.524 1.523 0 .84-.684 1.524-1.524 1.524ZM8.03 13.683a3.995 3.995 0 0 1-.906-2.182h1.753c.058.347.195.668.392.943l-1.24 1.24Zm0-5.12 1.239 1.239a2.268 2.268 0 0 0-.392.944H7.123a3.993 3.993 0 0 1 .906-2.183Zm6.188 0a4 4 0 0 1 .907 2.183H13.37a2.267 2.267 0 0 0-.392-.944l1.239-1.239Zm-.534-.534-1.239 1.239a2.267 2.267 0 0 0-.943-.392V7.123a3.995 3.995 0 0 1 2.182.906Zm-2.937-.906v1.753a2.268 2.268 0 0 0-.944.392l-1.239-1.24a3.993 3.993 0 0 1 2.183-.905Zm-2.183 7.094 1.239-1.238c.275.196.597.334.944.392v1.752a3.993 3.993 0 0 1-2.183-.905Zm2.938.906v-1.752c.347-.058.668-.196.943-.392l1.24 1.239a3.995 3.995 0 0 1-2.183.905Zm-.275-9.285c.778 0 1.411-.633 1.411-1.41 0-.78-.633-1.412-1.41-1.412-.78 0-1.412.633-1.412 1.411s.633 1.411 1.411 1.411Zm0-2.066a.657.657 0 1 1-.001 1.313.657.657 0 0 1 .001-1.313Zm3.707 1.692c-.55.55-.55 1.445 0 1.995.275.275.636.413.998.413a1.413 1.413 0 0 0 .998-2.408 1.413 1.413 0 0 0-1.996 0Zm1.461 1.46a.656.656 0 1 1-.927-.928.656.656 0 0 1 .927.929Zm.014 4.302c0 .778.633 1.411 1.411 1.411.779 0 1.411-.633 1.411-1.41 0-.78-.632-1.412-1.41-1.412-.779 0-1.412.633-1.412 1.411Zm1.411-.655a.657.657 0 1 1-.001 1.313.657.657 0 0 1 .001-1.313Zm-3.032 4.362c-.55.55-.55 1.445 0 1.995.276.275.637.413.998.413a1.412 1.412 0 1 0-.998-2.408Zm1.461 1.461a.656.656 0 1 1-.927-.928.656.656 0 0 1 .927.928Zm-5.228.014c-.778 0-1.41.633-1.41 1.411 0 .779.632 1.411 1.41 1.411.779 0 1.411-.632 1.411-1.41 0-.779-.633-1.412-1.41-1.412Zm0 2.067a.657.657 0 1 1 .002-1.314.657.657 0 0 1-.002 1.314Zm-5.702-3.688a1.412 1.412 0 1 0 1.998 1.996 1.412 1.412 0 0 0-1.998-1.996Zm1.461 1.461a.656.656 0 1 1-.927-.928.656.656 0 0 1 .927.928Zm-.94-5.228a1.412 1.412 0 0 0-2.822 0 1.412 1.412 0 0 0 2.821 0Zm-1.412.655a.657.657 0 1 1 .001-1.313.657.657 0 0 1 0 1.313Zm2.034-3.949c.361 0 .723-.137.998-.412.55-.55.55-1.446 0-1.996a1.412 1.412 0 0 0-1.995 0 1.409 1.409 0 0 0 .997 2.408Zm-.463-1.874a.653.653 0 0 1 .927 0 .656.656 0 1 1-.927 0Z"/></svg>