<svg xmlns="http://www.w3.org/2000/svg" width="26" height="23" fill="none"><path fill="currentColor" stroke="currentColor" stroke-width=".1" d="M2.967 2.663h-.001C1.555 3.973.951 5.587.95 7.596c-.05.358.001.74.089 1.14.043.2.096.405.15.616l.002.004c.054.213.11.43.16.655l.003.009c.356.813 1.016 1.396 1.724 1.75.707.353 1.468.482 2.03.38h.001l.004-.002c1.09-.297 2.28-.198 3.378.001 1.79.299 3.381 1.094 4.674 2.386a9.483 9.483 0 012.586 4.676c.253 1.162.886 2.025 1.75 2.508.863.482 1.952.582 3.113.229 1.712-.503 3.022-1.511 3.928-3.022.704-1.106 1.11-2.317.908-3.632-.201-2.205-.803-4.412-2.007-6.32-1.705-2.908-4.113-5.115-7.122-6.52C14.013 1.352 11.505.95 8.9.95c-.803 0-1.706.1-2.506.2l-.006.001-.005.002c-1.197.299-2.407.602-3.416 1.51zm13.489 13.313l-.003.008a1.8 1.8 0 01-.208.402l-.032.05a5.078 5.078 0 00-.212.354c-1.794-3.527-4.56-5.408-8.297-5.829 2.527-2.78 2.828-6.523.304-8.929 5.65-.936 13.701 2.432 16.115 10.88a1.997 1.997 0 00-.209-.06h-.002a1.363 1.363 0 01-.29-.097c-1.42-.71-2.837-.403-4.143.2l-.003.001a7.28 7.28 0 00-3.02 3.02zM4.8 11.05h-.004c-.589.05-1.077-.098-1.48-.39-.403-.294-.723-.736-.97-1.28l-.002-.004C1.752 8.29 1.7 6.954 2.073 5.727 2.445 4.5 3.238 3.386 4.325 2.743c1.672-.983 3.933.002 4.326 1.867v.001c.496 2.183-.098 4.065-1.685 5.553h-.001c-.35.35-.595.57-.898.703-.302.133-.669.183-1.267.183zM24.55 16v.005c.099 1.033-.345 2.22-1.126 3.189-.782.967-1.896 1.708-3.13 1.856l-.004.001a3.738 3.738 0 01-1.48 0c-.634-.146-1.224-.612-1.618-1.204-.395-.592-.59-1.303-.443-1.935.596-2.384 2.282-4.266 4.958-4.662.636-.098 1.373.097 1.938.527.564.43.954 1.09.905 1.92V16z"/></svg>