<svg xmlns="http://www.w3.org/2000/svg" width="26" height="20" fill="none"><mask id="a" width="26" height="20" x=".013" y="0" fill="#000" maskUnits="userSpaceOnUse"><path fill="#fff" d="M.013 0h26v20h-26z"/><path d="M13.673 7.438c-.136-.855-.527-1.693-2.292-1.702V4.113c.345.044.682.168.964.353.3.203.637.282.973.397a.215.215 0 00.128.017c.482-.114.991-.185 1.328-.608.2-.256.373-.52.419-.847.018-.14.136-.255.09-.405-.045-.186-.081-.38-.118-.574-.027-.176-.136-.361-.254-.511a1.597 1.597 0 00-.838-.582c-.573-.159-1.091-.159-1.646.238-.228.159-.492.264-.746.37-.073.036-.182.01-.291.01-.11-.3-.264-.574-.528-.795A.67.67 0 0010.389 1c-.264.009-.51 0-.764.123-.364.177-.437.486-.592.838-.263.062-.518-.097-.782-.229-.273-.141-.537-.309-.819-.423-.145-.062-.318-.018-.482-.044-.419-.062-.773.123-1.074.352-.3.22-.51.512-.618.891-.182.609-.037 1.226.373 1.729.182.22.4.361.655.476.382.159.891.203 1.237.053.218-.097.41-.238.628-.335.255-.115.518-.22.773-.309.037-.009.128.062.146.115.027.061.009.14.009.22v1.314c-.191 0-.391-.017-.582 0-.683.062-1.21.362-1.538.953a1.397 1.397 0 00-.155.423c-.063.291-.054.291-.364.3-.218.009-.427 0-.645.07a1.238 1.238 0 00-.72.565c-.027.044-.072.088-.117.15H1v5.036h3.548c.118 0 .237.008.346.044.118.044.054.185.1.264.173.3.382.573.755.653.118.026.2.07.237.167.2.53.673.715 1.164.909.382.15.8.176 1.174.344.027.009.063 0 .09 0 .383.026.765.07 1.147.088.382.018.755.018 1.137 0 .428-.018.864-.018 1.283-.097.564-.097 1.128-.238 1.656-.476.31-.133.591-.335.782-.688a.728.728 0 01.364-.318c.182-.088.337-.14.446-.344.127-.238.218-.22.519-.14.5.132.982.334 1.446.555.974.476 1.638 1.217 2.084 2.16.036.08.036.186.054.31-.045.026-.173.052-.21.123-.09.185-.245.326-.218.582.046.397.01.794.01 1.217.072.07.154.159.254.22.128.088.255.159.437.159 1.574-.009 3.157 0 4.73-.009.383 0 .674-.3.674-.679.01-.406 0-.82 0-1.252-.164-.124-.318-.247-.482-.37a.228.228 0 01-.064-.098c-.064-.326-.118-.652-.182-.987-.063-.31-.19-.6-.29-.9a6.494 6.494 0 00-.592-1.305c-.41-.68-.846-1.332-1.41-1.905-.6-.6-1.265-1.111-1.984-1.544a9.702 9.702 0 00-1.62-.776c-.345-.123-.682-.247-1.027-.352a13.33 13.33 0 00-.983-.247c-.182-.044-.355-.097-.555-.115a.556.556 0 01-.455-.291c-.3-.573-.618-.75-1.255-.75-.146.018-.3.018-.437.018zm-3.466.617h3.821c.091 0 .182-.017.273 0 .182.036.346.08.446.274.1.203.182.397.182.635-.01 1.252 0 2.496 0 3.748 0 .088.018.176 0 .264-.073.388-.255.68-.719.724-.2.017-.255.044-.273.247-.018.167-.054.326-.191.405-.255.141-.482.344-.782.406-.191.044-.373.123-.565.168-.2.044-.4.088-.6.088-.21-.01-.4.07-.6.088-.237.018-.483.009-.728.009-.255 0-.519.017-.774 0-.236-.018-.473.061-.7-.053-.218-.106-.5.044-.719-.124-.482-.008-.9-.211-1.31-.44-.21-.115-.4-.221-.41-.495-.008-.167-.154-.264-.363-.3-.391-.061-.628-.308-.628-.678V8.743c0-.08.01-.167.046-.247.127-.308.363-.45.71-.45 1.282.018 2.583.01 3.884.01zm5.359 4.921V9c.09.044.145.097.2.106.41.017.773.185 1.155.264.655.133 1.256.397 1.856.653.755.317 1.447.785 2.074 1.305a8.273 8.273 0 011.547 1.667c.355.494.61 1.05.864 1.588.2.432.282.908.446 1.367.082.229.082.485.118.75h-3.784c-.11-.221-.255-.433-.31-.662-.127-.53-.49-.909-.828-1.297-.318-.37-.736-.626-1.155-.89-.691-.45-1.383-.635-2.183-.873zm-4.85-9.489v2.275h-.509c-.164 0-.318-.008-.491-.008V3.487c-.892-.097-1.456.22-2.138.538-.1.203-.337.097-.455.194-.2.168-.346-.018-.482-.053a1.107 1.107 0 01-.71-.6c-.182-.379-.155-.785.082-1.164.346-.555 1.064-.688 1.601-.335.291.194.61.344.946.45.319.097.628.185.965.176.182.177.209-.026.209-.106.018-.246.009-.493.009-.74l.227-.22h.446c.118.105.228.21.346.325v.83c.036-.027.054-.045.082-.053a.531.531 0 01.164-.036c.527 0 1-.167 1.464-.397.2-.097.373-.238.592-.326.418-.176.991-.044 1.273.282.346.397.419.768.228 1.244-.155.38-.455.608-.883.74-.345.106-.61-.026-.828-.185-.3-.211-.636-.3-.955-.44-.355-.168-.755-.177-1.183-.124zm-5.804 5.37v3.564c0 .238-.055.309-.255.309H1.892c-.164 0-.237-.08-.246-.23-.01-.088 0-.176 0-.264V8.858h3.266zm8.079-1.428H7.478c-.01-.256-.019-.256.072-.405.237-.389.546-.644 1.047-.644 1.046.009 2.083.009 3.13-.01.2 0 .372.063.545.107.4.097.692.511.719.952zm11.381 10.936h-4.767c-.218-.273-.118-.564-.127-.847 0-.123.09-.203.236-.194.091.01.182 0 .273 0h4.394c-.009.353-.009.688-.009 1.041z"/></mask><path fill="currentColor" d="M13.673 7.438c-.136-.855-.527-1.693-2.292-1.702V4.113c.345.044.682.168.964.353.3.203.637.282.973.397a.215.215 0 00.128.017c.482-.114.991-.185 1.328-.608.2-.256.373-.52.419-.847.018-.14.136-.255.09-.405-.045-.186-.081-.38-.118-.574-.027-.176-.136-.361-.254-.511a1.597 1.597 0 00-.838-.582c-.573-.159-1.091-.159-1.646.238-.228.159-.492.264-.746.37-.073.036-.182.01-.291.01-.11-.3-.264-.574-.528-.795A.67.67 0 0010.389 1c-.264.009-.51 0-.764.123-.364.177-.437.486-.592.838-.263.062-.518-.097-.782-.229-.273-.141-.537-.309-.819-.423-.145-.062-.318-.018-.482-.044-.419-.062-.773.123-1.074.352-.3.22-.51.512-.618.891-.182.609-.037 1.226.373 1.729.182.22.4.361.655.476.382.159.891.203 1.237.053.218-.097.41-.238.628-.335.255-.115.518-.22.773-.309.037-.009.128.062.146.115.027.061.009.14.009.22v1.314c-.191 0-.391-.017-.582 0-.683.062-1.21.362-1.538.953a1.397 1.397 0 00-.155.423c-.063.291-.054.291-.364.3-.218.009-.427 0-.645.07a1.238 1.238 0 00-.72.565c-.027.044-.072.088-.117.15H1v5.036h3.548c.118 0 .237.008.346.044.118.044.054.185.1.264.173.3.382.573.755.653.118.026.2.07.237.167.2.53.673.715 1.164.909.382.15.8.176 1.174.344.027.009.063 0 .09 0 .383.026.765.07 1.147.088.382.018.755.018 1.137 0 .428-.018.864-.018 1.283-.097.564-.097 1.128-.238 1.656-.476.31-.133.591-.335.782-.688a.728.728 0 01.364-.318c.182-.088.337-.14.446-.344.127-.238.218-.22.519-.14.5.132.982.334 1.446.555.974.476 1.638 1.217 2.084 2.16.036.08.036.186.054.31-.045.026-.173.052-.21.123-.09.185-.245.326-.218.582.046.397.01.794.01 1.217.072.07.154.159.254.22.128.088.255.159.437.159 1.574-.009 3.157 0 4.73-.009.383 0 .674-.3.674-.679.01-.406 0-.82 0-1.252-.164-.124-.318-.247-.482-.37a.228.228 0 01-.064-.098c-.064-.326-.118-.652-.182-.987-.063-.31-.19-.6-.29-.9a6.494 6.494 0 00-.592-1.305c-.41-.68-.846-1.332-1.41-1.905-.6-.6-1.265-1.111-1.984-1.544a9.702 9.702 0 00-1.62-.776c-.345-.123-.682-.247-1.027-.352a13.33 13.33 0 00-.983-.247c-.182-.044-.355-.097-.555-.115a.556.556 0 01-.455-.291c-.3-.573-.618-.75-1.255-.75-.146.018-.3.018-.437.018zm-3.466.617h3.821c.091 0 .182-.017.273 0 .182.036.346.08.446.274.1.203.182.397.182.635-.01 1.252 0 2.496 0 3.748 0 .088.018.176 0 .264-.073.388-.255.68-.719.724-.2.017-.255.044-.273.247-.018.167-.054.326-.191.405-.255.141-.482.344-.782.406-.191.044-.373.123-.565.168-.2.044-.4.088-.6.088-.21-.01-.4.07-.6.088-.237.018-.483.009-.728.009-.255 0-.519.017-.774 0-.236-.018-.473.061-.7-.053-.218-.106-.5.044-.719-.124-.482-.008-.9-.211-1.31-.44-.21-.115-.4-.221-.41-.495-.008-.167-.154-.264-.363-.3-.391-.061-.628-.308-.628-.678V8.743c0-.08.01-.167.046-.247.127-.308.363-.45.71-.45 1.282.018 2.583.01 3.884.01zm5.359 4.921V9c.09.044.145.097.2.106.41.017.773.185 1.155.264.655.133 1.256.397 1.856.653.755.317 1.447.785 2.074 1.305a8.273 8.273 0 011.547 1.667c.355.494.61 1.05.864 1.588.2.432.282.908.446 1.367.082.229.082.485.118.75h-3.784c-.11-.221-.255-.433-.31-.662-.127-.53-.49-.909-.828-1.297-.318-.37-.736-.626-1.155-.89-.691-.45-1.383-.635-2.183-.873zm-4.85-9.489v2.275h-.509c-.164 0-.318-.008-.491-.008V3.487c-.892-.097-1.456.22-2.138.538-.1.203-.337.097-.455.194-.2.168-.346-.018-.482-.053a1.107 1.107 0 01-.71-.6c-.182-.379-.155-.785.082-1.164.346-.555 1.064-.688 1.601-.335.291.194.61.344.946.45.319.097.628.185.965.176.182.177.209-.026.209-.106.018-.246.009-.493.009-.74l.227-.22h.446c.118.105.228.21.346.325v.83c.036-.027.054-.045.082-.053a.531.531 0 01.164-.036c.527 0 1-.167 1.464-.397.2-.097.373-.238.592-.326.418-.176.991-.044 1.273.282.346.397.419.768.228 1.244-.155.38-.455.608-.883.74-.345.106-.61-.026-.828-.185-.3-.211-.636-.3-.955-.44-.355-.168-.755-.177-1.183-.124zm-5.804 5.37v3.564c0 .238-.055.309-.255.309H1.892c-.164 0-.237-.08-.246-.23-.01-.088 0-.176 0-.264V8.858h3.266zm8.079-1.428H7.478c-.01-.256-.019-.256.072-.405.237-.389.546-.644 1.047-.644 1.046.009 2.083.009 3.13-.01.2 0 .372.063.545.107.4.097.692.511.719.952zm11.381 10.936h-4.767c-.218-.273-.118-.564-.127-.847 0-.123.09-.203.236-.194.091.01.182 0 .273 0h4.394c-.009.353-.009.688-.009 1.041z"/><path stroke="currentColor" stroke-width=".2" d="M13.673 7.438c-.136-.855-.527-1.693-2.292-1.702V4.113c.345.044.682.168.964.353.3.203.637.282.973.397a.215.215 0 00.128.017c.482-.114.991-.185 1.328-.608.2-.256.373-.52.419-.847.018-.14.136-.255.09-.405-.045-.186-.081-.38-.118-.574-.027-.176-.136-.361-.254-.511a1.597 1.597 0 00-.838-.582c-.573-.159-1.091-.159-1.646.238-.228.159-.492.264-.746.37-.073.036-.182.01-.291.01-.11-.3-.264-.574-.528-.795A.67.67 0 0010.389 1c-.264.009-.51 0-.764.123-.364.177-.437.486-.592.838-.263.062-.518-.097-.782-.229-.273-.141-.537-.309-.819-.423-.145-.062-.318-.018-.482-.044-.419-.062-.773.123-1.074.352-.3.22-.51.512-.618.891-.182.609-.037 1.226.373 1.729.182.22.4.361.655.476.382.159.891.203 1.237.053.218-.097.41-.238.628-.335.255-.115.518-.22.773-.309.037-.009.128.062.146.115.027.061.009.14.009.22v1.314c-.191 0-.391-.017-.582 0-.683.062-1.21.362-1.538.953a1.397 1.397 0 00-.155.423c-.063.291-.054.291-.364.3-.218.009-.427 0-.645.07a1.238 1.238 0 00-.72.565c-.027.044-.072.088-.117.15H1v5.036h3.548c.118 0 .237.008.346.044.118.044.054.185.1.264.173.3.382.573.755.653.118.026.2.07.237.167.2.53.673.715 1.164.909.382.15.8.176 1.174.344.027.009.063 0 .09 0 .383.026.765.07 1.147.088.382.018.755.018 1.137 0 .428-.018.864-.018 1.283-.097.564-.097 1.128-.238 1.656-.476.31-.133.591-.335.782-.688a.728.728 0 01.364-.318c.182-.088.337-.14.446-.344.127-.238.218-.22.519-.14.5.132.982.334 1.446.555.974.476 1.638 1.217 2.084 2.16.036.08.036.186.054.31-.045.026-.173.052-.21.123-.09.185-.245.326-.218.582.046.397.01.794.01 1.217.072.07.154.159.254.22.128.088.255.159.437.159 1.574-.009 3.157 0 4.73-.009.383 0 .674-.3.674-.679.01-.406 0-.82 0-1.252-.164-.124-.318-.247-.482-.37a.228.228 0 01-.064-.098c-.064-.326-.118-.652-.182-.987-.063-.31-.19-.6-.29-.9a6.494 6.494 0 00-.592-1.305c-.41-.68-.846-1.332-1.41-1.905-.6-.6-1.265-1.111-1.984-1.544a9.702 9.702 0 00-1.62-.776c-.345-.123-.682-.247-1.027-.352a13.33 13.33 0 00-.983-.247c-.182-.044-.355-.097-.555-.115a.556.556 0 01-.455-.291c-.3-.573-.618-.75-1.255-.75-.146.018-.3.018-.437.018zm-3.466.617h3.821c.091 0 .182-.017.273 0 .182.036.346.08.446.274.1.203.182.397.182.635-.01 1.252 0 2.496 0 3.748 0 .088.018.176 0 .264-.073.388-.255.68-.719.724-.2.017-.255.044-.273.247-.018.167-.054.326-.191.405-.255.141-.482.344-.782.406-.191.044-.373.123-.565.168-.2.044-.4.088-.6.088-.21-.01-.4.07-.6.088-.237.018-.483.009-.728.009-.255 0-.519.017-.774 0-.236-.018-.473.061-.7-.053-.218-.106-.5.044-.719-.124-.482-.008-.9-.211-1.31-.44-.21-.115-.4-.221-.41-.495-.008-.167-.154-.264-.363-.3-.391-.061-.628-.308-.628-.678V8.743c0-.08.01-.167.046-.247.127-.308.363-.45.71-.45 1.282.018 2.583.01 3.884.01zm5.359 4.921V9c.09.044.145.097.2.106.41.017.773.185 1.155.264.655.133 1.256.397 1.856.653.755.317 1.447.785 2.074 1.305a8.273 8.273 0 011.547 1.667c.355.494.61 1.05.864 1.588.2.432.282.908.446 1.367.082.229.082.485.118.75h-3.784c-.11-.221-.255-.433-.31-.662-.127-.53-.49-.909-.828-1.297-.318-.37-.736-.626-1.155-.89-.691-.45-1.383-.635-2.183-.873zm-4.85-9.489v2.275h-.509c-.164 0-.318-.008-.491-.008V3.487c-.892-.097-1.456.22-2.138.538-.1.203-.337.097-.455.194-.2.168-.346-.018-.482-.053a1.107 1.107 0 01-.71-.6c-.182-.379-.155-.785.082-1.164.346-.555 1.064-.688 1.601-.335.291.194.61.344.946.45.319.097.628.185.965.176.182.177.209-.026.209-.106.018-.246.009-.493.009-.74l.227-.22h.446c.118.105.228.21.346.325v.83c.036-.027.054-.045.082-.053a.531.531 0 01.164-.036c.527 0 1-.167 1.464-.397.2-.097.373-.238.592-.326.418-.176.991-.044 1.273.282.346.397.419.768.228 1.244-.155.38-.455.608-.883.74-.345.106-.61-.026-.828-.185-.3-.211-.636-.3-.955-.44-.355-.168-.755-.177-1.183-.124zm-5.804 5.37v3.564c0 .238-.055.309-.255.309H1.892c-.164 0-.237-.08-.246-.23-.01-.088 0-.176 0-.264V8.858h3.266zm8.079-1.428H7.478c-.01-.256-.019-.256.072-.405.237-.389.546-.644 1.047-.644 1.046.009 2.083.009 3.13-.01.2 0 .372.063.545.107.4.097.692.511.719.952zm11.381 10.936h-4.767c-.218-.273-.118-.564-.127-.847 0-.123.09-.203.236-.194.091.01.182 0 .273 0h4.394c-.009.353-.009.688-.009 1.041z" mask="url(#a)"/></svg>