<svg xmlns="http://www.w3.org/2000/svg" width="27" height="13" fill="none"><path fill="currentColor" d="M9.486 8.43H1.095a.365.365 0 010-.73h8.391a.365.365 0 110 .73zm0 2.919H1.095a.365.365 0 110-.73h8.391a.365.365 0 110 .73zm16.419 0h-8.392a.365.365 0 110-.73h8.392a.364.364 0 110 .73zm0-2.919h-8.392a.365.365 0 010-.73h8.392a.365.365 0 110 .73z"/><path fill="currentColor" d="M16.784 12.809h-6.568a1.094 1.094 0 01-1.094-1.095V7.336a1.095 1.095 0 011.094-1.095h6.568a1.095 1.095 0 011.094 1.095v4.378a1.095 1.095 0 01-1.094 1.095zM10.216 6.97a.365.365 0 00-.365.365v4.378a.365.365 0 00.365.365h6.568a.365.365 0 00.365-.365V7.336a.365.365 0 00-.365-.365h-6.568z"/><path fill="currentColor" d="M15.324 6.97h-3.648a.365.365 0 01-.365-.364V5.07a.365.365 0 01.365-.365h3.648a.365.365 0 01.365.365v1.536a.365.365 0 01-.365.365zm-3.284-.73h2.92v-.805h-2.92v.806z"/><path fill="currentColor" d="M15.324 5.435h-3.648a.365.365 0 01-.289-.143L9.198 2.45a.365.365 0 01.577-.445l2.08 2.7h3.283l2.08-2.7a.363.363 0 01.525-.084.365.365 0 01.052.529l-2.19 2.842a.365.365 0 01-.28.143z"/><path fill="currentColor" d="M13.5 5.435a.365.365 0 01-.365-.365V2.227a.365.365 0 01.73 0V5.07a.365.365 0 01-.365.365z"/><path fill="currentColor" d="M18.243 2.592H8.757a1.2 1.2 0 010-2.4h9.486a1.2 1.2 0 010 2.4zM8.757.922a.47.47 0 100 .94h9.486a.47.47 0 100-.94H8.757z"/></svg>