<svg xmlns="http://www.w3.org/2000/svg" width="28" height="17" fill="none"><path fill="currentColor" stroke="currentColor" stroke-width=".1" d="M.874 7.086c-.553 1.846-.256 3.542.763 5.275.138.334.375.636.654.937.138.15.288.3.442.455l.003.003c.155.155.314.315.47.483l.008.006c.718.52 1.582.689 2.372.635.789-.054 1.51-.33 1.944-.703l.003-.003c.788-.808 1.864-1.327 2.912-1.712 1.695-.65 3.469-.771 5.238-.312a9.484 9.484 0 0 1 4.6 2.718c.807.874 1.79 1.297 2.78 1.275.988-.021 1.978-.488 2.8-1.38 1.22-1.302 1.838-2.835 1.853-4.597.046-1.31-.219-2.56-1.06-3.59-1.29-1.8-2.928-3.397-4.933-4.43C18.779.502 15.585-.18 12.28.135c-2.55.22-4.915 1.145-7.16 2.466-.693.407-1.42.951-2.059 1.443l-.005.004-.003.003c-.88.865-1.77 1.74-2.18 3.034Zm18.377 4.637h-.001l.002.009c.031.148.03.288.024.45l-.002.062c-.004.122-.01.256-.003.412-3.335-2.132-6.673-2.35-10.107-.819.768-3.677-.87-7.056-4.265-7.85C9.295.316 17.942-.863 24.306 5.195a1.994 1.994 0 0 0-.21.054h-.003c-.1.03-.193.058-.298.065-1.584.108-2.65 1.09-3.47 2.272l-.002.003a7.28 7.28 0 0 0-1.073 4.134ZM6.705 13.386l-.004.002c-.482.341-.977.462-1.472.414-.497-.049-.997-.268-1.487-.612l-.003-.002c-1.06-.635-1.782-1.761-2.083-3.008-.302-1.246-.183-2.608.429-3.714.942-1.694 3.39-1.992 4.675-.583 1.534 1.63 1.976 3.554 1.362 5.641v.002c-.124.479-.224.791-.418 1.06-.193.268-.483.497-.999.8ZM26.239 7.64l.003.004c.609.841.829 2.09.645 3.32-.183 1.23-.767 2.434-1.756 3.187l-.003.003c-.375.335-.8.585-1.275.75-.622.195-1.366.093-2.006-.217-.64-.31-1.168-.824-1.363-1.444-.695-2.357-.196-4.834 1.91-6.532.499-.407 1.233-.612 1.938-.528.704.084 1.375.455 1.754 1.196l.001.003.001.001v.001h.001v.002h.001v.001l.001.001v.001l.001.001v.001h.001v.001l.001.001v.001l.001.001v.001h.001v.001l.001.001V7.4l.001.001v.001h.001v.001l.001.001v.001l.001.001v.001h.001v.002l.001.001v.001h.001v.001l.001.001v.001l.001.001v.001h.001v.001l.001.001v.001l.001.001v.001h.001v.002h.001v.001l.001.001v.001h.001v.002h.001v.001l.001.001v.001h.001v.002h.001v.001l.001.001v.001h.001v.002h.001v.001l.001.001v.001l.001.001v.001h.001v.001l.001.001v.001l.001.001v.001h.001v.001l.001.001v.001l.001.001v.001h.001v.001l.001.001v.001l.001.001v.001l.001.001v.001l.001.001v.001h.001v.001l.001.001v.001l.001.001v.001h.001v.001l.001.001v.001l.001.001v.001h.001v.002h.001v.001l.001.001v.001h.001v.002h.001v.001l.001.001v.001h.001v.002h.001v.001l.001.001v.001h.001v.002h.001v.001l.001.001v.001l.001.001v.001h.001v.001l.001.001v.001l.001.001v.001h.001V7.5l.001.001v.001l.001.001v.001h.001v.001l.001.001v.001l.001.001v.001l.001.001v.001l.001.001v.001h.001v.001l.001.001v.001l.001.001v.001h.001v.001l.001.001v.001l.001.001v.001h.001v.001l.001.001v.001l.001.001v.001h.001v.002h.001v.001l.001.001v.001h.001v.002h.001v.001l.001.001v.001h.001v.002h.001v.001l.001.001v.001l.001.001v.001h.001v.001l.001.001v.001l.001.001v.001h.001v.001l.001.001v.001l.001.001v.001h.001v.001l.001.001v.002h.001v.001l.001.001v.001l.001.001v.001h.001v.001l.001.001v.001l.001.001v.001h.001v.001l.001.001v.001l.001.001v.001h.001v.001l.001.001v.001l.001.001v.001h.001v.002h.001v.001l.001.001v.001h.001v.002h.001v.001l.001.001v.001h.001v.002h.001v.001l.001.001v.001l.001.001v.001h.001v.001l.001.001v.001l.001.001V7.6h.001v.001l.001.001v.001l.001.001v.001h.001v.002h.001v.002h.001v.001l.001.001v.001l.001.001v.001h.001v.001l.001.001v.001l.001.001v.001h.001v.001l.001.001v.001l.001.001v.001h.001v.001l.001.001v.001l.001.001v.001h.001v.002h.001v.001l.001.001v.001h.001v.002h.001v.001l.001.001v.001h.001v.001Z"/></svg>