<svg xmlns="http://www.w3.org/2000/svg" width="27" height="13" fill="none"><path fill="currentColor" d="M9.486 8.43H1.095a.365.365 0 0 1 0-.73h8.391a.365.365 0 1 1 0 .73ZM9.486 11.349H1.095a.365.365 0 1 1 0-.73h8.391a.365.365 0 1 1 0 .73ZM25.905 11.349h-8.392a.365.365 0 1 1 0-.73h8.392a.364.364 0 1 1 0 .73ZM25.905 8.43h-8.392a.365.365 0 0 1 0-.73h8.392a.365.365 0 1 1 0 .73Z"/><path fill="currentColor" d="M16.784 12.809h-6.568a1.094 1.094 0 0 1-1.094-1.095V7.336a1.095 1.095 0 0 1 1.094-1.095h6.568a1.095 1.095 0 0 1 1.094 1.095v4.378a1.095 1.095 0 0 1-1.094 1.095ZM10.216 6.97a.365.365 0 0 0-.365.365v4.378a.365.365 0 0 0 .365.365h6.568a.365.365 0 0 0 .365-.365V7.336a.365.365 0 0 0-.365-.365h-6.568Z"/><path fill="currentColor" d="M15.324 6.97h-3.648a.365.365 0 0 1-.365-.364V5.07a.365.365 0 0 1 .365-.365h3.648a.365.365 0 0 1 .365.365v1.536a.365.365 0 0 1-.365.365Zm-3.284-.73h2.92v-.805h-2.92v.806Z"/><path fill="currentColor" d="M15.324 5.435h-3.648a.365.365 0 0 1-.289-.143L9.198 2.45a.365.365 0 0 1 .577-.445l2.08 2.7h3.283l2.08-2.7a.363.363 0 0 1 .525-.084.365.365 0 0 1 .052.529l-2.19 2.842a.365.365 0 0 1-.28.143Z"/><path fill="currentColor" d="M13.5 5.435a.365.365 0 0 1-.365-.365V2.227a.365.365 0 0 1 .73 0V5.07a.365.365 0 0 1-.365.365Z"/><path fill="currentColor" d="M18.243 2.592H8.757a1.2 1.2 0 0 1 0-2.4h9.486a1.2 1.2 0 0 1 0 2.4ZM8.757.922a.47.47 0 1 0 0 .94h9.486a.47.47 0 1 0 0-.94H8.757Z"/></svg>