<svg xmlns="http://www.w3.org/2000/svg" width="21" height="17" fill="none"><path fill="currentColor" d="M20.607 8.744h-1.271v-.24a1.25 1.25 0 00-.371-.887 1.271 1.271 0 00-.894-.368h-.328a1.27 1.27 0 00-.893.368c-.238.235-.37.554-.371.886v.241h-.94a2.468 2.468 0 00-.595-1.094 2.495 2.495 0 00-1.056-.669V6.48c0-.322-.13-.63-.36-.858a1.23 1.23 0 00-.865-.356H11.8v-1.03h1.402c.498 0 .98-.174 1.363-.49.383-.315.643-.754.735-1.24h4.435c.336 0 .657-.131.894-.366a1.248 1.248 0 000-1.773A1.268 1.268 0 0019.735 0H14.86c-.498 0-.98.173-1.364.488a2.12 2.12 0 00-.736 1.239h-.96v-.265c0-.342-.137-.67-.38-.913a1.305 1.305 0 00-1.84 0c-.243.242-.38.57-.38.913v.265H8.175a1.27 1.27 0 00-.894.367 1.25 1.25 0 000 1.775c.237.235.559.367.894.367H9.2v1.029h-.863a1.23 1.23 0 00-.865.356c-.23.228-.36.536-.36.858v.502c-.403.13-.767.36-1.056.669a2.468 2.468 0 00-.594 1.094h-.94v-.241a1.256 1.256 0 00-.372-.887 1.271 1.271 0 00-.893-.368h-.328c-.335 0-.657.133-.894.368a1.25 1.25 0 00-.37.887v.24H.392a.395.395 0 00-.393.39v5.59a.387.387 0 00.243.36c.047.02.098.03.15.03h1.271v.24c0 .333.134.652.371.887s.559.367.894.368h.328c.335 0 .656-.133.893-.368a1.25 1.25 0 00.371-.887v-.24h.94c.134.54.447 1.02.889 1.362A2.51 2.51 0 007.897 17h5.206a2.511 2.511 0 001.547-.525c.442-.343.755-.822.888-1.362h.94v.24c.001.333.134.652.372.887.237.235.558.367.893.368h.328c.335 0 .657-.133.894-.368a1.25 1.25 0 00.37-.887v-.24h1.272a.395.395 0 00.393-.39V9.134a.388.388 0 00-.393-.39zM9.986 1.462a.508.508 0 01.514-.51.517.517 0 01.514.51v.265H9.986v-.265zM7.696 2.98a.474.474 0 01.48-.475h4.94a.395.395 0 00.364-.24.387.387 0 00.03-.15c0-.355.143-.694.396-.945.253-.25.596-.392.954-.392h4.875a.48.48 0 01.442.292.468.468 0 01-.103.516.48.48 0 01-.339.14h-4.792a.395.395 0 00-.393.39c0 .354-.143.694-.395.945a1.356 1.356 0 01-.953.393H8.175a.481.481 0 01-.478-.474zm2.29 1.254h1.028v1.03H9.986v-1.03zM7.898 6.48a.434.434 0 01.439-.434h4.326a.44.44 0 01.438.434v.377H7.898V6.48zM.786 14.333V9.524h.878v4.809H.786zm2.95 1.02a.48.48 0 01-.478.475h-.33a.48.48 0 01-.478-.475v-6.85a.473.473 0 01.479-.474h.328a.48.48 0 01.478.474v6.85zm11.472-1.02a.394.394 0 00-.391.351 1.7 1.7 0 01-.557 1.098 1.72 1.72 0 01-1.157.438H7.897a1.721 1.721 0 01-1.157-.438 1.696 1.696 0 01-.557-1.098.389.389 0 00-.39-.351H4.52V9.524h1.271a.395.395 0 00.391-.352 1.7 1.7 0 01.557-1.097c.317-.284.73-.44 1.157-.438h5.206c.427-.002.84.154 1.157.438a1.7 1.7 0 01.557 1.097.389.389 0 00.39.352h1.272v4.809h-1.271zm3.342 1.02a.48.48 0 01-.478.475h-.329a.48.48 0 01-.478-.475v-6.85a.473.473 0 01.478-.474h.328a.48.48 0 01.479.474v6.85zm1.664-1.02h-.878V9.524h.878v4.809z"/></svg>