<svg xmlns="http://www.w3.org/2000/svg" width="27" height="16" fill="none"><path fill="currentColor" d="M23.584 9.45c.11.214.11.43.22.644 1.212 2.684-.882 5.799-3.857 5.799-1.323 0-2.425-.43-3.416-1.396-1.543-1.504-3.086-3.007-4.519-4.51-.661-.645-1.322-.86-2.204-.86-1.984 0-4.078-.107-6.061 0-1.543.215-2.425-.429-2.976-1.503-.992-1.933-1.102-4.51.441-6.55C1.763.322 2.645.107 3.526 0h19.286c2.094 0 3.416.966 3.967 3.007.331 1.288.22 2.577-.11 3.758-.33 1.396-1.432 2.255-3.085 2.685zm-13.335-.967c-.22-.644-.22-1.181-.441-1.718-.33-.859 0-1.61.33-2.362.331-.86.882-1.396 1.654-1.933 1.763-.967 3.747-.752 5.18.644l4.958 4.832c.882.86 2.535.752 3.196-.214 1.213-1.826 1.213-3.759.331-5.692-.22-.537-.661-.966-1.212-1.074C23.583.86 22.812.752 22.15.752H5.51c.44 1.396 1.212 2.577 1.212 3.865 0 1.396-.55 2.578-1.102 3.759 1.543.107 3.086.107 4.629.107zM20.277 7.41c-1.322-1.288-2.534-2.47-3.747-3.543-.55-.43-1.102-.86-1.763-.967-1.432-.43-3.085.322-3.857 1.611-.551.967-.661 2.685.551 3.866 1.212 1.288 2.535 2.47 3.857 3.758.22-.859.33-1.61.772-2.362.33-.752.991-1.289 1.763-1.61.661-.323 1.433-.538 2.424-.753zm2.866 4.51c.22-1.932-1.653-3.436-3.196-3.436-1.874 0-3.527 1.396-3.527 3.33 0 2.04 1.543 3.328 3.306 3.328 2.094 0 3.527-1.503 3.417-3.222zM.88 4.725c-.11 1.074.331 2.04.882 2.9.882 1.18 2.204 1.18 3.086 0 1.322-1.719 1.212-4.189.11-5.692-.882-1.289-2.314-1.396-3.306 0A3.999 3.999 0 00.88 4.725z"/></svg>